HIERARCHY
ROOT Hips
{
	OFFSET 0.00000 0.00000 0.00000
	CHANNELS 6 Xposition Yposition Zposition Zrotation Yrotation Xrotation 
	JOINT LHipJoint
	{
		OFFSET 0 0 0
		CHANNELS 3 Zrotation Yrotation Xrotation
		JOINT LeftHip
		{
			OFFSET 1.26600 -1.82114 0.91038
			CHANNELS 3 Zrotation Yrotation Xrotation
			JOINT LeftKnee
			{
				OFFSET 2.50076 -6.87080 0.00000
				CHANNELS 3 Zrotation Yrotation Xrotation
				JOINT LeftAnkle
				{
					OFFSET 2.57364 -7.07102 0.00000
					CHANNELS 3 Zrotation Yrotation Xrotation
					JOINT LeftToe
					{
						OFFSET 0.13572 -0.37290 1.97004
						CHANNELS 3 Zrotation Yrotation Xrotation
						End Site
						{
							OFFSET 0.00000 -0.00000 1.01383
						}
					}
				}
			}
		}
	}
	JOINT RHipJoint
	{
		OFFSET 0 0 0
		CHANNELS 3 Zrotation Yrotation Xrotation
		JOINT RightHip
		{
			OFFSET -1.20803 -1.82114 0.91038
			CHANNELS 3 Zrotation Yrotation Xrotation
			JOINT RightKnee
			{
				OFFSET -2.54916 -7.00377 0.00000
				CHANNELS 3 Zrotation Yrotation Xrotation
				JOINT RightAnkle
				{
					OFFSET -2.56374 -7.04382 0.00000
					CHANNELS 3 Zrotation Yrotation Xrotation
					JOINT RightToe
					{
						OFFSET -0.23520 -0.64621 2.09921
						CHANNELS 3 Zrotation Yrotation Xrotation
						End Site
						{
							OFFSET -0.00000 -0.00000 1.10065
						}
					}
				}
			}
		}
	}
	JOINT lowerback
	{
		OFFSET 0 0 0
		CHANNELS 3 Zrotation Yrotation Xrotation
		JOINT Chest
		{
			OFFSET 0.05492 2.10797 -0.12074
			CHANNELS 3 Zrotation Yrotation Xrotation
			JOINT Chest2
			{
				OFFSET 0.04577 2.11592 -0.04483
				CHANNELS 3 Zrotation Yrotation Xrotation
				JOINT lowerneck
				{
					OFFSET 0 0 0
					CHANNELS 3 Zrotation Yrotation Xrotation
					JOINT Neck
					{
						OFFSET -0.10759 1.80167 0.15770
						CHANNELS 3 Zrotation Yrotation Xrotation
						JOINT Head
						{
							OFFSET 0.09237 1.77509 -0.40848
							CHANNELS 3 Zrotation Yrotation Xrotation
							End Site
							{
								OFFSET 0.03805 1.84093 -0.15754
							}
						}
					}
				}
				JOINT LeftCollar
				{
					OFFSET 0 0 0
					CHANNELS 3 Zrotation Yrotation Xrotation
					JOINT LeftShoulder
					{
						OFFSET 3.42372 1.09575 -0.28209
CHANNELS 3 Zrotation Xrotation Yrotation
						JOINT LeftElbow
						{
OFFSET 0 -4.956810 0.000000
CHANNELS 3 Zrotation Xrotation Yrotation
							JOINT LeftWrist
							{
OFFSET 0 -3.409150 0.000000
CHANNELS 3 Zrotation Xrotation Yrotation
								JOINT lhand
								{
									OFFSET 0 0 0
CHANNELS 3 Zrotation Xrotation Yrotation
									JOINT LFingers
									{
OFFSET 0 -0.616400 0.000000
CHANNELS 3 Zrotation Xrotation Yrotation
										End Site
										{
OFFSET 0 -0.496960 0.000000
										}
									}
								}
								JOINT LThumb
								{
OFFSET 0 0.000000 0.000000
CHANNELS 3 Zrotation Xrotation Yrotation
									End Site
									{
OFFSET 0 -0.504550 0.504550
									}
								}
							}
						}
					}
				}
				JOINT RightCollar
				{
					OFFSET 0 0 0
					CHANNELS 3 Zrotation Yrotation Xrotation
					JOINT RightShoulder
					{
						OFFSET -3.24731 1.15872 -0.32221
CHANNELS 3 Zrotation Xrotation Yrotation
						JOINT RightElbow
						{
OFFSET 0 -5.352000 0.000000
CHANNELS 3 Zrotation Xrotation Yrotation
							JOINT RightWrist
							{
OFFSET 0 -3.437210 -0.000000
CHANNELS 3 Zrotation Xrotation Yrotation
								JOINT rhand
								{
									OFFSET 0 0 0
CHANNELS 3 Zrotation Xrotation Yrotation
									JOINT RFingers
									{
OFFSET 0 -0.720090 0.000000
CHANNELS 3 Zrotation Xrotation Yrotation
										End Site
										{
OFFSET 0 -0.580560 0.000000
										}
									}
								}
								JOINT RThumb
								{
OFFSET 0 0.000000 0.000000
CHANNELS 3 Zrotation Xrotation Yrotation
									End Site
									{
OFFSET 0 -0.589420 0.589420
									}
								}
							}
						}
					}
				}
			}
		}
	}
}
MOTION
Frames: 4
Frame Time: 0.008333333333333333
-14.148600 17.233900 12.120600 -176.042000 3.082600 -175.157000 0.000000 0.000000 0.000000 -14.362200 -4.751500 -14.940600 4.065300 12.246900 36.610900 0.566800 -17.542100 -17.139600 0.114500 2.181500 6.007600 0.000000 0.000000 0.000000 28.353700 -5.900100 -12.309000 -3.505200 -11.471100 33.885600 -2.064100 -4.082600 -28.843800 -0.098700 -2.026200 5.578100 3.651000 0.997000 0.552600 2.890700 1.486500 0.166600 0.908600 0.798600 -0.126500 -6.191600 -0.870900 -15.413900 -2.079600 6.318100 37.819900 1.741200 2.916100 16.068100 -0.000000 -0.000000 0.000000 0.936300 0.941600 -23.187800 15.700400 -25.112700 3.517800 15.836900 2.870300 -20.812500 0.000000 0.000000 0.000000 -7.125000 0.000000 0.000000 -12.832800 51.093000 1.953700 -0.000000 -0.000000 0.000000 -2.560200 -0.807900 10.631600 -11.775500 -19.467100 -2.026900 -20.079400 -11.086200 -13.827700 0.000000 0.000000 0.000000 7.125000 0.000000 -0.000000 5.015400 15.333200 3.524400
-14.153996 17.205438 12.117587 -176.544770 3.376358 -175.180062 0.000000 0.000000 0.000000 -14.924774 -3.978865 -14.995048 3.941679 12.082439 36.024193 0.493984 -17.625854 -16.616561 0.027865 1.017310 2.797015 0.000000 0.000000 0.000000 27.671284 -5.734094 -12.725923 -3.706658 -11.759410 34.886145 -2.183319 -3.483354 -29.331324 -0.128421 -2.309480 6.361757 3.357902 1.097340 0.940494 2.601660 1.617098 0.127521 0.764984 0.851023 -0.381655 -5.807509 -0.934280 -15.479269 -2.132416 5.992252 37.635509 1.583554 2.805252 16.001039 0.000000 0.000000 0.000000 1.193952 1.057957 -21.714300 15.021849 -24.176482 3.234907 15.749972 5.633246 -23.953817 0.000000 0.000000 0.000000 -7.125000 0.000000 0.000000 -14.430720 54.137449 3.476634 0.000000 0.000000 0.000000 -2.335092 -0.837676 11.884217 -12.159667 -20.043627 -2.156715 -20.015388 -11.284261 -12.652846 0.000000 0.000000 0.000000 7.125000 0.000000 0.000000 5.021413 16.575570 3.393347
-14.158881 17.158368 12.132004 -176.965279 4.226755 -175.383053 0.000000 0.000000 0.000000 -15.377950 -3.105194 -15.028152 3.984063 12.139106 36.226015 0.617314 -17.928189 -17.708963 0.003981 0.401687 1.103620 0.000000 0.000000 0.000000 26.956787 -5.909124 -13.093530 -3.895987 -12.020674 35.805259 -2.357865 -2.328110 -29.933282 -0.171764 -2.664268 7.345716 2.911900 1.270717 1.802887 2.606099 1.876814 0.268677 0.994409 0.977611 -0.731324 -6.353632 -0.871479 -16.020501 -1.790143 6.042756 37.518378 1.833209 2.746592 16.039937 0.000000 0.000000 0.000000 0.981870 1.395179 -21.062606 14.419241 -23.330898 2.992197 16.403210 3.764155 -19.763369 0.000000 0.000000 0.000000 -7.125000 0.000000 0.000000 -12.605894 49.900333 2.451136 0.000000 0.000000 0.000000 -2.874246 -1.397918 12.763636 -12.485134 -20.528153 -2.269569 -20.018444 -11.810829 -12.619910 0.000000 0.000000 0.000000 7.125000 0.000000 0.000000 5.018346 16.609880 3.387526
-14.137635 17.094209 12.166831 -176.866220 5.428441 -175.625307 0.000000 0.000000 0.000000 -15.226867 -2.744052 -15.105477 4.124130 12.323732 36.887156 0.851827 -16.975829 -19.012782 0.003954 -0.352711 -0.969217 0.000000 0.000000 0.000000 26.921456 -5.739445 -13.518204 -4.183516 -12.400674 37.164490 -2.439359 -1.561242 -30.137873 -0.156491 -2.548770 7.024986 3.115706 1.537232 2.731858 2.440212 2.266867 0.688643 0.680404 1.174102 -0.804675 -6.376187 -0.724321 -15.556385 -1.675678 5.829655 36.544430 1.787006 2.644642 15.430022 0.000000 0.000000 0.000000 1.619978 1.312321 -20.860935 14.064132 -22.826202 2.853004 15.232954 2.207475 -16.936555 0.000000 0.000000 0.000000 -7.125000 0.000000 0.000000 -12.614569 46.920180 1.389708 0.000000 0.000000 0.000000 -3.003404 -2.495860 13.340884 -12.838859 -21.050632 -2.395087 -19.703776 -12.313247 -12.809931 0.000000 0.000000 0.000000 7.125000 0.000000 0.000000 5.241527 16.438748 3.559015
